<svg width="1920" height="183" viewBox="0 0 1920 183" fill="none" xmlns="http://www.w3.org/2000/svg">
<path d="M1920 99.7935L1866.67 117.756C1813.33 135.719 1706.67 171.645 1600 180.626C1493.33 189.608 1386.67 171.645 1280 151.187C1173.33 130.729 1066.67 107.777 960 108.775C853.333 109.773 746.667 134.721 640 145.2C533.333 155.678 426.667 151.686 320 151.686C213.333 151.686 106.667 155.678 53.3332 157.674L-0.000100136 159.67V4.4328e-06H53.3332C106.667 4.4328e-06 213.333 4.4328e-06 320 4.4328e-06C426.667 4.4328e-06 533.333 4.4328e-06 640 4.4328e-06C746.667 4.4328e-06 853.333 4.4328e-06 960 4.4328e-06C1066.67 4.4328e-06 1173.33 4.4328e-06 1280 4.4328e-06C1386.67 4.4328e-06 1493.33 4.4328e-06 1600 4.4328e-06C1706.67 4.4328e-06 1813.33 4.4328e-06 1866.67 4.4328e-06H1920V99.7935Z" fill="#00AF55" fill-opacity="0.13"/>
</svg>
