<svg width="1920" height="147" viewBox="0 0 1920 147" fill="none" xmlns="http://www.w3.org/2000/svg">
<path d="M0 20L53.3333 14C106.667 7.99996 213.333 -4.00003 320 3.69997C426.667 11.3 533.333 38.7 640 46.2C746.667 53.7 853.333 41.3 960 28.2C1066.67 15 1173.33 0.999957 1280 0.499957C1386.67 -4.26492e-05 1493.33 13 1600 23C1706.67 33 1813.33 40 1866.67 43.5L1920 47V147H1866.67C1813.33 147 1706.67 147 1600 147C1493.33 147 1386.67 147 1280 147C1173.33 147 1066.67 147 960 147C853.333 147 746.667 147 640 147C533.333 147 426.667 147 320 147C213.333 147 106.667 147 53.3333 147H0V20Z" fill="#00AF55" fill-opacity="0.13"/>
</svg>
