<svg xmlns="http://www.w3.org/2000/svg" viewBox="0 -0.5 100 100" shape-rendering="crispEdges">
<metadata>Made with Pixels to Svg https://codepen.io/shshaw/pen/XbxvNj</metadata>
<path stroke="#1cbf6b" d="M34 15h7M54 15h20M34 16h7M54 16h20M34 17h7M54 17h20M34 18h7M54 18h20M34 19h7M54 19h20M34 20h7M54 20h20M34 21h7M54 21h20M21 22h20M47 22h40M21 23h20M47 23h40M21 24h20M47 24h40M21 25h20M47 25h40M21 26h20M47 26h40M21 27h20M47 27h40M21 28h20M47 28h40M14 29h13M34 29h59M14 30h13M34 30h59M14 31h13M34 31h59M14 32h13M34 32h59M14 33h13M34 33h59M14 34h13M34 34h59M14 35h13M34 35h59M21 36h72M21 37h72M21 38h72M21 39h72M21 40h72M21 41h72M21 42h72M41 43h19M74 43h19M41 44h19M74 44h19M41 45h19M74 45h19M41 46h19M74 46h19M41 47h19M74 47h19M41 48h19M74 48h19M41 49h19M74 49h19M34 50h7M67 50h7M93 50h7M34 51h7M67 51h7M93 51h7M34 52h7M67 52h7M93 52h7M34 53h7M67 53h7M93 53h7M34 54h7M67 54h7M93 54h7M34 55h7M67 55h7M93 55h7M34 56h7M67 56h7M93 56h7M34 57h7M67 57h7M93 57h7M93 58h7M93 59h7M93 60h7M93 61h7M93 62h7M93 63h7M93 64h7M93 65h7M93 66h7M93 67h7M93 68h7M93 69h7M93 70h7M93 71h7M93 72h7M93 73h7M93 74h7M93 75h7M93 76h7M93 77h7M93 78h7M74 79h6M93 79h7M74 80h6M93 80h7M74 81h6M93 81h7M74 82h6M93 82h7M74 83h6M93 83h7M74 84h6M93 84h7M74 85h6M93 85h7M80 86h13M80 87h13M80 88h13M80 89h13M80 90h13M80 91h13M80 92h13" />
<path stroke="#212121" d="M27 29h7M27 30h7M27 31h7M27 32h7M27 33h7M27 34h7M27 35h7" />
<path stroke="#d600bd" d="M8 36h13M8 37h13M8 38h13M8 39h13M8 40h13M8 41h13M8 42h13M1 43h13M1 44h13M1 45h13M1 46h13M1 47h13M1 48h13M1 49h13" />
<path stroke="#00af55" d="M47 50h7M80 50h7M47 51h7M80 51h7M47 52h7M80 52h7M47 53h7M80 53h7M47 54h7M80 54h7M47 55h7M80 55h7M47 56h7M80 56h7M47 57h7M80 57h7" />
</svg>